<?xml version="1.0" encoding="UTF-8"?>
<svg version="1.1" xmlns="http://www.w3.org/2000/svg" width="4269" height="2400">
<path d="M0 0 C71.41589781 -0.74681614 143.3401652 3.80857615 211.08978271 28.16467285 C212.34432251 28.6149585 212.34432251 28.6149585 213.62420654 29.07434082 C218.29539913 30.80509957 222.7774172 32.76439105 227.26947021 34.9185791 C234.38865703 38.24830274 241.68530596 40.69943711 249.15280151 43.10592651 C253.13158769 44.39017338 257.10018318 45.70533876 261.07025146 47.01623535 C261.85709824 47.27541245 262.64394501 47.53458954 263.45463562 47.80162048 C291.65346764 57.10065328 318.84734961 66.70417911 340.21478271 88.03967285 C340.88122803 88.6945166 341.54767334 89.34936035 342.23431396 90.02404785 C352.33381833 100.69350167 358.82430788 114.3993968 358.65228271 129.10217285 C358.64325928 130.05188965 358.63423584 131.00160645 358.62493896 131.98010254 C357.98392136 159.19664177 349.44367433 185.45909439 338.21478271 210.03967285 C337.87898193 210.79200195 337.54318115 211.54433105 337.19720459 212.31945801 C332.40522195 223.03776832 326.90409872 233.18532756 321.01947021 243.34020996 C316.92197886 250.51861658 313.59173004 257.81775261 310.45916748 265.45690918 C295.69477757 301.05598277 268.34005744 334.2751823 239.27337646 359.2623291 C237.10112112 361.13780573 234.97122604 363.05550251 232.83978271 364.97717285 C228.10667659 369.18527573 223.20178345 373.13774 218.21478271 377.03967285 C217.23767334 377.81182129 216.26056396 378.58396973 215.25384521 379.3795166 C203.59004005 388.53218603 191.33930238 396.7639027 178.83978271 404.72717285 C178.01268799 405.25681641 177.18559326 405.78645996 176.33343506 406.33215332 C175.56467041 406.81700195 174.79590576 407.30185059 174.00384521 407.8013916 C172.97831543 408.45047485 172.97831543 408.45047485 171.93206787 409.1126709 C170.21478271 410.03967285 170.21478271 410.03967285 168.21478271 410.03967285 C167.88478271 411.02967285 167.55478271 412.01967285 167.21478271 413.03967285 C165.22948359 413.74892022 163.22563659 414.40649741 161.21478271 415.03967285 C158.78308442 416.35417947 156.40542147 417.69852894 154.02728271 419.10217285 C138.41780254 428.05855137 122.12478028 434.94444214 105.21478271 441.03967285 C104.50128662 441.30344727 103.78779053 441.56722168 103.05267334 441.83898926 C70.55834465 453.80281028 35.54009638 459.67475921 1.21478271 463.03967285 C0.20818604 463.14408691 -0.79841064 463.24850098 -1.83551025 463.3560791 C-42.0442873 467.35607077 -83.53825245 466.32595778 -123.78521729 463.03967285 C-124.62941223 462.97179565 -125.47360718 462.90391846 -126.34338379 462.83398438 C-132.90969575 462.30396015 -139.47305987 461.74377725 -146.03521729 461.16467285 C-147.32116287 461.05210144 -147.32116287 461.05210144 -148.63308716 460.93725586 C-153.97043076 460.46330587 -159.3000591 459.93476282 -164.62832642 459.36791992 C-166.87238755 459.13458703 -169.11769265 458.91308536 -171.36373901 458.69970703 C-191.27757794 456.78361629 -209.42787185 452.89560076 -228.51145554 446.6751976 C-231.88691139 445.5814192 -235.27234201 444.51930644 -238.65655518 443.45300293 C-243.98846669 441.76874732 -249.31431611 440.06672639 -254.63482666 438.34680176 C-260.62985158 436.40904288 -266.63427978 434.50357536 -272.64459229 432.6138916 C-333.25274095 413.4753748 -392.71342185 389.97628482 -447.78521729 358.03967285 C-448.50580322 357.62330566 -449.22638916 357.20693848 -449.96881104 356.7779541 C-460.53735488 350.64610589 -470.69660924 343.92744071 -480.78521729 337.03967285 C-481.45037354 336.58914551 -482.11552979 336.13861816 -482.80084229 335.67443848 C-500.90089047 323.36861303 -513.02544819 308.88672052 -517.39459229 286.98498535 C-518.79737908 276.40797292 -518.19953689 266.88947913 -512.31256104 257.7545166 C-507.43959119 251.59130415 -500.54230624 247.48785397 -492.78521729 246.03967285 C-479.34220375 244.85452052 -471.78629697 248.38658126 -461.40240479 256.4888916 C-460.86873291 257.00064941 -460.33506104 257.51240723 -459.78521729 258.03967285 C-459.78521729 258.69967285 -459.78521729 259.35967285 -459.78521729 260.03967285 C-458.91896729 260.41092285 -458.91896729 260.41092285 -458.03521729 260.78967285 C-455.45581749 262.22267274 -453.72400137 263.82391962 -451.78521729 266.03967285 C-451.78521729 266.69967285 -451.78521729 267.35967285 -451.78521729 268.03967285 C-451.12521729 268.03967285 -450.46521729 268.03967285 -449.78521729 268.03967285 C-448.32452393 269.51062012 -448.32452393 269.51062012 -446.63287354 271.5435791 C-434.16044183 286.18765095 -421.55037177 298.25106879 -403.17193604 304.7467041 C-399.37657352 306.19568333 -395.83213501 307.93568181 -392.22271729 309.78967285 C-344.24279215 334.20818169 -291.68407987 349.91327674 -240.78521729 367.03967285 C-241.65457473 364.43160052 -242.55902785 362.6111262 -243.97271729 360.2935791 C-258.69440193 335.78397793 -269.50232177 309.44337634 -273.78521729 281.03967285 C-273.88689209 280.36645996 -273.98856689 279.69324707 -274.09332275 278.99963379 C-278.34039881 246.49171115 -271.99219305 215.11392907 -259.78521729 185.03967285 C-259.42121826 184.11638184 -259.42121826 184.11638184 -259.04986572 183.17443848 C-253.87775523 170.13172507 -246.87516826 158.11797935 -239.78521729 146.03967285 C-239.31035889 145.22675781 -238.83550049 144.41384277 -238.34625244 143.57629395 C-227.51425105 125.12712606 -214.85221746 107.94090323 -202.07525635 90.80700684 C-200.93690166 89.24747814 -199.85623135 87.64619395 -198.78521729 86.03967285 C-199.44521729 86.36967285 -200.10521729 86.69967285 -200.78521729 87.03967285 C-202.19118126 87.26905555 -203.60435368 87.45516074 -205.01959229 87.61779785 C-235.77975488 91.35095142 -264.64038145 100.08258107 -292.78521729 113.03967285 C-294.24193848 113.70241211 -294.24193848 113.70241211 -295.72808838 114.37854004 C-311.66307811 121.66527997 -326.82003552 129.93656894 -341.78521729 139.03967285 C-342.55720459 139.50647461 -343.32919189 139.97327637 -344.12457275 140.45422363 C-356.7746411 148.12674641 -369.00757835 156.35593953 -380.76055908 165.34484863 C-389.17422898 171.77711387 -397.7576863 177.70925321 -406.72271729 183.35217285 C-415.46456942 188.85576524 -423.8416442 194.42802819 -431.78521729 201.03967285 C-432.61795166 201.69838379 -433.45068604 202.35709473 -434.30865479 203.0357666 C-443.22709018 210.39866094 -448.95033264 219.81487809 -451.02740479 231.17248535 C-452.0845996 233.77732619 -453.36481233 234.64994645 -455.78521729 236.03967285 C-460.39549594 236.87177193 -464.49344774 236.71363957 -468.66021729 234.53967285 C-474.11102496 228.12695795 -476.17244902 221.19437406 -476.06256104 212.8795166 C-474.71713871 199.10314999 -466.50241687 187.26590027 -457.78521729 177.03967285 C-456.85369876 175.92292635 -455.92274146 174.80571155 -454.99224854 173.68811035 C-446.3158836 163.34069969 -437.11861203 153.76076487 -426.78521729 145.03967285 C-425.83131104 144.2198291 -424.87740479 143.39998535 -423.89459229 142.55529785 C-416.65638723 136.35159985 -409.25446846 130.39102322 -401.72320557 124.54797363 C-399.65318823 122.93691705 -397.59186308 121.3151589 -395.53131104 119.6920166 C-387.34220648 113.25733517 -379.07145177 106.97405004 -370.58892822 100.93029785 C-366.79318651 98.22442257 -363.03679005 95.48623303 -359.34381104 92.64123535 C-304.4187138 50.55099114 -235.21582892 30.3357906 -169.06616211 13.61706543 C-166.97836444 13.08856563 -164.89160135 12.55621892 -162.80523682 12.02209473 C-149.21410069 8.55743071 -135.7188797 5.69877695 -121.78521729 4.03967285 C-120.96746826 3.94202637 -120.14971924 3.84437988 -119.30718994 3.74377441 C-116.80117788 3.4533215 -114.29408119 3.17931153 -111.78521729 2.91467285 C-111.07583008 2.83894043 -110.36644287 2.76320801 -109.63555908 2.68518066 C-88.77484194 0.66204584 -67.75969697 0.74527225 -46.82236481 0.50683975 C-44.19740508 0.47688399 -41.572457 0.44603904 -38.94750977 0.41500854 C-27.94108887 0.28566773 -16.93457413 0.16905346 -5.92792511 0.06098938 C-3.95194327 0.04133151 -1.97597109 0.02071015 0 0 Z M94.21478271 80.03967285 C94.54422911 84.4516773 94.54422911 84.4516773 97.11322021 87.88342285 C98.33911865 88.7032666 98.33911865 88.7032666 99.58978271 89.53967285 C128.80493895 111.51346557 143.3733624 156.51708916 149.21478271 191.03967285 C149.33482666 191.7259375 149.45487061 192.41220215 149.57855225 193.1192627 C156.50672942 234.63669998 149.61605222 280.26336911 134.21478271 319.03967285 C133.73307617 320.2626709 133.73307617 320.2626709 133.24163818 321.51037598 C129.50593485 330.90529574 125.45652568 339.92639445 120.36712646 348.6685791 C119.98685303 349.45104004 119.60657959 350.23350098 119.21478271 351.03967285 C119.54478271 351.69967285 119.87478271 352.35967285 120.21478271 353.03967285 C156.58191913 337.74731588 188.67577809 313.95220036 212.00531006 281.70227051 C213.27607578 279.95541653 214.57985128 278.23718933 215.89056396 276.5201416 C223.28764446 266.75006614 229.82418139 256.48818452 236.21478271 246.03967285 C236.63582275 245.35743652 237.05686279 244.6752002 237.49066162 243.97229004 C251.85090376 220.61882336 263.57297376 195.6237994 275.33422852 170.88751221 C275.92396659 169.6499493 276.51640089 168.41366783 277.1114502 167.1786499 C277.96241556 165.41154111 278.80363309 163.63974832 279.64447021 161.86779785 C280.12641846 160.85878418 280.6083667 159.84977051 281.10491943 158.81018066 C282.72558746 154.76457118 283.17762733 151.29293429 282.21478271 147.03967285 C274.56463794 129.29133698 251.72043151 120.48881991 234.97991943 113.73449707 C197.80724064 99.16263895 158.93164665 89.40468178 119.96478271 80.97717285 C119.27037079 80.82479156 118.57595886 80.67241028 117.86050415 80.51541138 C105.710237 77.16536515 105.710237 77.16536515 94.21478271 80.03967285 Z M-117.47271729 158.10217285 C-135.99978879 185.46703276 -140.84582365 222.73581506 -134.76177979 254.68811035 C-131.78064875 268.70498112 -126.19041355 281.51059349 -113.97271729 289.72717285 C-107.09704745 293.83706572 -99.79335024 295.17757517 -91.91412354 293.3873291 C-80.67899586 290.24473036 -71.06360021 285.10716956 -62.08209229 277.7154541 C-59.49335087 275.8267295 -56.87128728 274.52760149 -53.97271729 273.16467285 C-47.23373697 269.94990418 -41.58572549 265.70511758 -35.78521729 261.03967285 C-35.02338135 260.43252441 -34.26154541 259.82537598 -33.47662354 259.1998291 C-31.86275321 257.87171449 -30.31434195 256.46453902 -28.78521729 255.03967285 C-28.78521729 254.37967285 -28.78521729 253.71967285 -28.78521729 253.03967285 C-28.12521729 253.03967285 -27.46521729 253.03967285 -26.78521729 253.03967285 C-10.37435849 235.1092901 -1.39062626 213.98939271 -1.46954346 189.64489746 C-1.47270726 187.6086279 -1.44914719 185.57381133 -1.42388916 183.53771973 C-1.41739018 170.24730481 -3.76914657 158.33780653 -12.97271729 148.28967285 C-20.56502685 141.13025813 -29.08174201 138.86271226 -39.22271729 138.91467285 C-39.97359619 138.91080566 -40.7244751 138.90693848 -41.49810791 138.9029541 C-44.53096843 138.90828895 -47.34012314 138.95051686 -50.32037354 139.54748535 C-56.87770039 140.85687233 -63.07607384 139.77461188 -69.53521729 138.53967285 C-90.74576946 134.85984829 -104.44588486 140.32230698 -117.47271729 158.10217285 Z " fill="#000000" transform="translate(2200.7852172851563,1202.9603271484375)"/>
<path d="M0 0 C7.86362497 8.22106247 10.42800119 17.82165374 12.89453125 28.62890625 C13.26405289 30.18687949 13.63528883 31.74444697 14.00810242 33.30163574 C14.7991593 36.61794121 15.58038901 39.93633542 16.35351562 43.25686646 C18.19410716 51.15923398 20.08238758 59.05024279 21.9711113 66.94122124 C22.40031531 68.7349654 22.82890366 70.52885699 23.25688553 72.32289314 C26.24461654 84.83957818 29.36798585 97.3119992 32.66796875 109.75 C32.86368784 110.4889192 33.05940693 111.2278384 33.2610569 111.98914909 C34.93857765 118.317438 36.62425503 124.64347311 38.34292603 130.96072388 C41.84853295 143.84698502 45.08542972 156.47076534 46.71873474 169.73799133 C47.76827393 177.91480487 50.07028267 185.37652018 52.8125 193.125 C53.32819135 194.62692096 53.84280005 196.129214 54.35644531 197.63183594 C59.73121054 213.23366033 65.48210771 228.71057864 71.25415039 244.16894531 C75.02291165 254.28133297 78.67926874 264.41946931 82.109375 274.65234375 C82.4320636 275.61049988 82.7547522 276.56865601 83.08721924 277.55584717 C93.06975574 307.68740602 93.06975574 307.68740602 90.75 317.875 C89.21875 320.15234375 89.21875 320.15234375 87.75 321.875 C85.02148341 321.83480086 83.28883195 321.4004755 81.31201172 319.47265625 C79.70072309 317.48459864 78.18479777 315.45034545 76.6875 313.375 C75.83768555 312.22692871 75.83768555 312.22692871 74.97070312 311.05566406 C73.2154439 308.67268978 71.48171329 306.27511993 69.75 303.875 C68.73056191 302.48430671 67.71103474 301.0936787 66.69140625 299.703125 C53.60467626 281.67261544 42.4595878 262.38556929 31.75 242.875 C31.26208984 241.99247559 30.77417969 241.10995117 30.27148438 240.20068359 C-1.81524847 181.81281621 -23.07707166 116.90905194 -41.76000977 53.19943237 C-42.32910536 51.25893768 -42.90144572 49.31939115 -43.47729492 47.38088989 C-51.87024908 19.02426035 -51.87024908 19.02426035 -46.25 7.875 C-35.19195758 -8.23017647 -16.05842971 -10.4997425 0 0 Z " fill="#000000" transform="translate(1855.25,834.125)"/>
<path d="M0 0 C6.85368528 3.37973828 10.59898422 8.28928268 13.3125 15.3125 C19.6834035 39.98913288 8.48330129 68.13285588 1.34739685 91.59124756 C-0.98743759 99.27229908 -3.25041481 106.97334059 -5.47402954 114.68728638 C-6.10157007 116.85650962 -6.7383626 119.02285763 -7.37573242 121.18920898 C-10.89768971 133.28746382 -13.96478093 145.00799323 -13.56640625 157.6796875 C-13.20431708 171.92509153 -16.0134695 186.04496821 -18.24874115 200.06769943 C-18.6285117 202.45961784 -19.00281286 204.85232983 -19.37530518 207.24539185 C-23.52957366 233.92866916 -28.10268499 260.5184813 -33.24731445 287.03009033 C-33.88149054 290.31836195 -34.4946936 293.61037336 -35.109375 296.90234375 C-45.13193791 349.8200537 -45.13193791 349.8200537 -55.6875 361.3125 C-58.1875 361.9375 -58.1875 361.9375 -60.6875 361.3125 C-64.03572535 358.05993823 -65.74298062 354.86336608 -66.6875 350.3125 C-66.45348731 344.43351447 -65.43331718 338.66088845 -64.32983398 332.89355469 C-57.18138488 294.63805075 -57.58240578 254.85367569 -55.96874905 216.05856419 C-48.2781617 31.28473776 -48.2781617 31.28473776 -21.3984375 3.796875 C-14.65915811 -2.0499884 -8.27485341 -3.36208803 0 0 Z " fill="#000000" transform="translate(2167.6875,721.6875)"/>
<path d="M0 0 C5.45865069 5.45865069 7.18035224 11.68673939 7.5625 19.1875 C6.75149799 49.61629556 -13.30918541 78.56634099 -30.69482422 102.21191406 C-41.94515912 117.62483079 -53.03609915 133.33583975 -62.2578125 150.0625 C-62.64203369 150.75827148 -63.02625488 151.45404297 -63.42211914 152.17089844 C-64.15294015 153.50330513 -64.87675566 154.83959282 -65.59155273 156.18066406 C-67.59905576 159.85266066 -69.81033735 163.11527124 -72.42578125 166.38671875 C-75.99373049 170.87162187 -78.84370476 175.56109892 -81.625 180.5625 C-82.13369629 181.46379639 -82.64239258 182.36509277 -83.16650391 183.29370117 C-86.9837977 190.0896497 -90.68288325 196.94802235 -94.375 203.8125 C-127.18679207 264.74868528 -127.18679207 264.74868528 -140 270 C-142.5 270.5 -142.5 270.5 -145 270 C-148.16693016 266.49069901 -149.33870486 263.85764976 -149.21166992 259.14868164 C-148.75496881 254.51266495 -147.60494559 250.01700083 -146.5 245.5 C-146.23227783 244.40212158 -145.96455566 243.30424316 -145.6887207 242.1730957 C-141.02613943 223.6490018 -134.17598245 206.22570993 -126 189 C-125.55140625 188.04399902 -125.1028125 187.08799805 -124.640625 186.10302734 C-116.31100402 168.35967607 -107.59731569 150.78208307 -98.0390625 133.6640625 C-90.15582608 119.54103061 -83.29425137 105.05688147 -76.51304626 90.38450623 C-73.75221579 84.42857935 -70.83661898 78.56587151 -67.80859375 72.7421875 C-61.96480625 60.95102986 -57.79049642 48.77197192 -53.89819336 36.23535156 C-49.44676064 21.96856684 -43.9944695 8.21846605 -30.625 0.1875 C-21.20780688 -4.6324485 -9.19415422 -6.27893459 0 0 Z " fill="#000000" transform="translate(2494,826)"/>
<path d="M0 0 C10.92752044 4.72303568 20.63515627 12.08261045 28.2265625 21.234375 C29.90713176 23.2541775 31.67865267 25.15114588 33.47265625 27.0703125 C39.60243539 33.93804563 44.82686129 41.55703766 50.24853516 48.98388672 C59.778151 62.0251506 69.69642382 74.66198377 82.65234375 84.47265625 C84.90197738 86.25134581 86.85574645 88.1348552 88.84765625 90.1953125 C95.9180104 97.44949586 104.11652604 103.45405995 112.14331055 109.59936523 C120.59481729 116.06995213 128.80586187 122.79271671 136.90234375 129.69921875 C138.68904401 131.21907417 140.48320266 132.73034093 142.29296875 134.22265625 C143.86737397 135.52616179 145.39613696 136.88463222 146.91015625 138.2578125 C146.91015625 138.9178125 146.91015625 139.5778125 146.91015625 140.2578125 C147.57015625 140.2578125 148.23015625 140.2578125 148.91015625 140.2578125 C148.91015625 140.9178125 148.91015625 141.5778125 148.91015625 142.2578125 C149.57015625 142.2578125 150.23015625 142.2578125 150.91015625 142.2578125 C155.52513628 147.32272094 159.46451705 153.0269283 160.41015625 159.8828125 C159.91015625 163.2578125 159.91015625 163.2578125 157.78515625 165.6328125 C153.91406685 167.82081955 151.03524472 168.73782934 146.58203125 167.73193359 C143.67329475 166.82968662 140.82726784 165.81923477 137.97265625 164.7578125 C136.88871582 164.35908936 135.80477539 163.96036621 134.68798828 163.54956055 C111.91388265 154.9026129 90.27893257 143.58891284 69.91015625 130.2578125 C68.8126001 129.53948242 68.8126001 129.53948242 67.69287109 128.80664062 C63.02643661 125.72266002 58.44979535 122.52500982 53.91015625 119.2578125 C53.141875 118.70593262 52.37359375 118.15405273 51.58203125 117.58544922 C41.71736819 110.47166055 32.16443481 103.15156394 22.91015625 95.2578125 C21.10125197 93.77425071 19.28874519 92.29507052 17.47265625 90.8203125 C8.30290924 83.32618833 -0.6772815 75.68631363 -9.39453125 67.66796875 C-13.01745372 64.42834097 -16.80118574 61.40655778 -20.5859375 58.359375 C-23.42536881 55.97620177 -25.97576334 53.4140102 -28.53515625 50.73828125 C-30.24094341 49.01548183 -30.24094341 49.01548183 -33.27734375 47.2578125 C-36.83658396 44.72679724 -38.83877664 42.40460797 -40.08984375 38.2578125 C-41.55494371 26.08851283 -38.69291291 16.11574346 -31.66796875 6.19921875 C-22.90241545 -4.58414756 -12.41204138 -4.58044366 0 0 Z " fill="#000000" transform="translate(1588.08984375,1076.7421875)"/>
<path d="M0 0 C5.40324968 4.07333591 9.86394954 8.65799405 14 14 C12.63016497 17.16115776 12.0109362 17.9927092 9 20 C9.268125 20.78375 9.53625 21.5675 9.8125 22.375 C10.29053463 31.61700289 2.92068966 39.23850293 -2.9296875 45.7734375 C-10.89455886 54.32792282 -20.27105854 61.01459252 -29.83129883 67.65820312 C-39.27073966 74.23108824 -47.82442505 81.64074618 -56.23828125 89.45703125 C-58.41540629 91.46171074 -60.61712768 93.401252 -62.875 95.3125 C-66.76666329 98.69017003 -70.41248947 102.30329246 -74.0625 105.9375 C-74.6404834 106.51089111 -75.2184668 107.08428223 -75.81396484 107.67504883 C-78.74592437 110.61740538 -81.5623044 113.61492684 -84.26757812 116.76757812 C-87.75901367 120.77430819 -91.42056515 124.56572603 -95.18359375 128.31640625 C-95.84279312 128.97656235 -96.50199249 129.63671844 -97.1811676 130.31687927 C-98.56396835 131.70035506 -99.94801076 133.08259083 -101.33325195 134.46362305 C-103.43230343 136.55731669 -105.5259594 138.65629874 -107.61914062 140.75585938 C-108.97363786 142.10969571 -110.32844531 143.46322175 -111.68359375 144.81640625 C-112.29843124 145.43326797 -112.91326874 146.0501297 -113.54673767 146.6856842 C-117.29169559 150.41088347 -121.15221434 153.94449989 -125.16542053 157.37950134 C-127.02183388 159.01928604 -128.76604582 160.73194166 -130.5 162.5 C-161.16730225 193.50880896 -161.16730225 193.50880896 -175.38671875 195.30078125 C-176.14597656 195.30464844 -176.90523437 195.30851562 -177.6875 195.3125 C-178.45449219 195.32925781 -179.22148437 195.34601563 -180.01171875 195.36328125 C-180.66785156 195.24339844 -181.32398437 195.12351562 -182 195 C-184.21934455 191.67098317 -184.27129898 190.51206363 -184.25 186.625 C-184.25515625 185.68914062 -184.2603125 184.75328125 -184.265625 183.7890625 C-183.72208311 178.08187268 -181.69419791 175.34477748 -177.375 171.6875 C-176.47136719 170.89730469 -175.56773437 170.10710937 -174.63671875 169.29296875 C-173.33154297 168.15794922 -173.33154297 168.15794922 -172 167 C-156.0205213 152.78551303 -143.71130255 132.81104971 -132.01660156 115.0324707 C-127.45395254 108.11680877 -122.699034 101.3358237 -117.95385742 94.54467773 C-114.97558408 90.28104063 -111.99836127 86.01866308 -109.08984375 81.70703125 C-97.92682076 65.16760799 -85.94465673 48.58677982 -72.4375 33.875 C-69.71009007 30.88560902 -67.01578285 27.87864385 -64.375 24.8125 C-48.86794297 7.15070384 -24.20083951 -12.9438345 0 0 Z " fill="#000000" transform="translate(2717,979)"/>
</svg>
