<?xml version="1.0" encoding="UTF-8"?>
<svg id="Layer_2" data-name="Layer 2" xmlns="http://www.w3.org/2000/svg" viewBox="0 0 1411.77 1858">
  <defs>
    <style>
      .cls-1 { fill: url(#linear-gradient); }
      .cls-2 { fill: #ddd; }
      .cls-3 { fill: #fff; }
    </style>
    <linearGradient id="linear-gradient" x1="56.12" y1="346.01" x2="1353.34" y2="1281.71" gradientUnits="userSpaceOnUse">
      <stop offset="0" stop-color="#a6cc52"/>
      <stop offset="1" stop-color="#4cd971"/>
    </linearGradient>
  </defs>
  <g id="Objects">
    <g>
      <path class="cls-1" d="M705.89,0S497.21,346.11,0,366.86v316.81c0,892.14,705.89,996.34,705.89,996.34,0,0,705.89-104.2,705.89-996.34v-316.81C914.56,346.11,705.89,0,705.89,0Z"/>
      <g>
        <path class="cls-3" d="M888.01,802.83h-364.24c-44.33,0-80.27,35.93-80.27,80.26v326.4c0,44.33,35.94,80.26,80.27,80.26h364.24c44.33,0,80.27-35.93,80.27-80.26v-326.4c0-44.33-35.94-80.26-80.27-80.26ZM671.5,1176.61l-95.03-95.02,35.43-35.44,52.99,52.99,129.49-183.17,40.92,28.93-163.8,231.71Z"/>
        <path class="cls-3" d="M591.47,637.86c0-63.09,51.33-114.4,114.42-114.4s114.42,51.32,114.42,114.4v122.96h50.46v-122.96c0-91.05-73.82-164.86-164.87-164.86s-164.87,73.81-164.87,164.86v122.96h50.46v-122.96Z"/>
      </g>
      <ellipse class="cls-2" cx="705.89" cy="1808.5" rx="282" ry="49.5"/>
    </g>
  </g>
</svg>
