<svg xmlns="http://www.w3.org/2000/svg" xmlns:xlink="http://www.w3.org/1999/xlink" width="816" zoomAndPan="magnify" viewBox="0 0 612 791.999994" height="1056" preserveAspectRatio="xMidYMid meet" version="1.0"><defs><g/><clipPath id="39cc86af2a"><path d="M 322 219.234375 L 550.949219 219.234375 L 550.949219 572.484375 L 322 572.484375 Z M 322 219.234375 " clip-rule="nonzero"/></clipPath><clipPath id="26d246402e"><path d="M 321 219.234375 L 550.949219 219.234375 L 550.949219 572.484375 L 321 572.484375 Z M 321 219.234375 " clip-rule="nonzero"/></clipPath><clipPath id="83ff29b274"><path d="M 61.199219 219.234375 L 290 219.234375 L 290 572.484375 L 61.199219 572.484375 Z M 61.199219 219.234375 " clip-rule="nonzero"/></clipPath><clipPath id="9e4f3abb21"><path d="M 61.199219 219.234375 L 291 219.234375 L 291 572.484375 L 61.199219 572.484375 Z M 61.199219 219.234375 " clip-rule="nonzero"/></clipPath><clipPath id="ccca8ff014"><path d="M 1 1 L 1.800781 1 L 1.800781 2 L 1 2 Z M 1 1 " clip-rule="nonzero"/></clipPath><clipPath id="5d0e7a5bee"><rect x="0" width="2" y="0" height="2"/></clipPath></defs><g clip-path="url(#39cc86af2a)"><path fill="#00bf63" d="M 550.746094 396 C 550.746094 398.890625 550.699219 401.78125 550.609375 404.667969 C 550.515625 407.554688 550.378906 410.4375 550.195312 413.316406 C 550.015625 416.195312 549.785156 419.0625 549.511719 421.921875 C 549.238281 424.78125 548.917969 427.628906 548.554688 430.464844 C 548.1875 433.300781 547.78125 436.121094 547.328125 438.925781 C 546.871094 441.730469 546.375 444.515625 545.832031 447.285156 C 545.289062 450.050781 544.707031 452.796875 544.074219 455.515625 C 543.445312 458.238281 542.773438 460.9375 542.058594 463.609375 C 541.347656 466.277344 540.589844 468.921875 539.789062 471.535156 C 538.992188 474.148438 538.152344 476.730469 537.273438 479.28125 C 536.390625 481.832031 535.472656 484.34375 534.511719 486.824219 C 533.550781 489.304688 532.554688 491.746094 531.515625 494.152344 C 530.476562 496.554688 529.402344 498.917969 528.292969 501.242188 C 527.179688 503.5625 526.03125 505.839844 524.84375 508.078125 C 523.660156 510.3125 522.441406 512.5 521.1875 514.640625 C 519.933594 516.785156 518.644531 518.878906 517.324219 520.921875 C 516.003906 522.96875 514.652344 524.960938 513.269531 526.902344 C 511.886719 528.84375 510.472656 530.730469 509.027344 532.566406 C 507.585938 534.398438 506.113281 536.179688 504.613281 537.902344 C 503.113281 539.621094 501.585938 541.289062 500.035156 542.894531 C 498.480469 544.5 496.90625 546.046875 495.300781 547.53125 C 493.699219 549.019531 492.078125 550.445312 490.429688 551.808594 C 488.78125 553.167969 487.113281 554.46875 485.425781 555.707031 C 483.738281 556.941406 482.03125 558.113281 480.308594 559.21875 C 478.582031 560.324219 476.839844 561.367188 475.082031 562.339844 C 473.324219 563.3125 471.550781 564.222656 469.765625 565.058594 C 467.976562 565.898438 466.175781 566.671875 464.367188 567.371094 C 462.554688 568.074219 460.734375 568.707031 458.902344 569.273438 C 457.070312 569.835938 455.230469 570.332031 453.382812 570.753906 C 451.535156 571.179688 449.683594 571.535156 447.824219 571.816406 C 445.964844 572.101562 444.105469 572.3125 442.238281 572.453125 C 440.375 572.597656 438.507812 572.667969 436.640625 572.667969 C 434.773438 572.667969 432.90625 572.597656 431.042969 572.453125 C 429.175781 572.3125 427.316406 572.101562 425.457031 571.816406 C 423.597656 571.535156 421.746094 571.179688 419.898438 570.753906 C 418.050781 570.332031 416.210938 569.835938 414.378906 569.273438 C 412.546875 568.707031 410.726562 568.074219 408.914062 567.371094 C 407.105469 566.671875 405.304688 565.898438 403.515625 565.058594 C 401.730469 564.222656 399.957031 563.3125 398.199219 562.339844 C 396.441406 561.367188 394.699219 560.324219 392.972656 559.21875 C 391.25 558.113281 389.542969 556.941406 387.855469 555.707031 C 386.167969 554.46875 384.5 553.167969 382.851562 551.808594 C 381.203125 550.445312 379.582031 549.019531 377.980469 547.53125 C 376.375 546.046875 374.800781 544.5 373.246094 542.894531 C 371.695312 541.289062 370.167969 539.621094 368.667969 537.902344 C 367.167969 536.179688 365.695312 534.398438 364.253906 532.566406 C 362.808594 530.730469 361.394531 528.84375 360.011719 526.902344 C 358.628906 524.960938 357.277344 522.96875 355.957031 520.921875 C 354.636719 518.878906 353.347656 516.785156 352.09375 514.640625 C 350.839844 512.5 349.621094 510.3125 348.4375 508.078125 C 347.25 505.839844 346.101562 503.5625 344.988281 501.242188 C 343.878906 498.917969 342.804688 496.554688 341.765625 494.152344 C 340.726562 491.746094 339.730469 489.304688 338.769531 486.824219 C 337.808594 484.34375 336.890625 481.832031 336.007812 479.28125 C 335.128906 476.730469 334.289062 474.148438 333.492188 471.535156 C 332.691406 468.921875 331.933594 466.277344 331.222656 463.609375 C 330.507812 460.9375 329.835938 458.238281 329.207031 455.515625 C 328.574219 452.796875 327.992188 450.050781 327.449219 447.285156 C 326.90625 444.515625 326.410156 441.730469 325.953125 438.925781 C 325.5 436.121094 325.09375 433.300781 324.726562 430.464844 C 324.363281 427.628906 324.042969 424.78125 323.769531 421.921875 C 323.496094 419.0625 323.265625 416.195312 323.085938 413.316406 C 322.902344 410.4375 322.765625 407.554688 322.671875 404.667969 C 322.582031 401.78125 322.535156 398.890625 322.535156 396 C 322.535156 393.109375 322.582031 390.21875 322.671875 387.332031 C 322.765625 384.441406 322.902344 381.558594 323.085938 378.683594 C 323.265625 375.804688 323.496094 372.9375 323.769531 370.078125 C 324.042969 367.21875 324.363281 364.371094 324.726562 361.535156 C 325.09375 358.699219 325.5 355.878906 325.953125 353.074219 C 326.410156 350.269531 326.90625 347.484375 327.449219 344.714844 C 327.992188 341.949219 328.574219 339.203125 329.207031 336.480469 C 329.835938 333.757812 330.507812 331.0625 331.222656 328.390625 C 331.933594 325.71875 332.691406 323.078125 333.492188 320.464844 C 334.289062 317.851562 335.128906 315.269531 336.007812 312.71875 C 336.890625 310.167969 337.808594 307.652344 338.769531 305.175781 C 339.730469 302.695312 340.726562 300.253906 341.765625 297.847656 C 342.804688 295.445312 343.878906 293.082031 344.988281 290.757812 C 346.101562 288.4375 347.25 286.15625 348.4375 283.921875 C 349.621094 281.6875 350.839844 279.5 352.09375 277.355469 C 353.347656 275.214844 354.636719 273.121094 355.957031 271.078125 C 357.277344 269.03125 358.628906 267.039062 360.011719 265.097656 C 361.394531 263.15625 362.808594 261.269531 364.253906 259.433594 C 365.695312 257.597656 367.167969 255.820312 368.667969 254.097656 C 370.167969 252.375 371.695312 250.710938 373.246094 249.105469 C 374.800781 247.5 376.375 245.953125 377.980469 244.464844 C 379.582031 242.980469 381.203125 241.554688 382.851562 240.191406 C 384.5 238.828125 386.167969 237.53125 387.855469 236.292969 C 389.542969 235.058594 391.25 233.886719 392.972656 232.78125 C 394.699219 231.671875 396.441406 230.632812 398.199219 229.660156 C 399.957031 228.683594 401.730469 227.777344 403.515625 226.9375 C 405.304688 226.101562 407.105469 225.328125 408.914062 224.625 C 410.726562 223.921875 412.546875 223.289062 414.378906 222.726562 C 416.210938 222.164062 418.050781 221.667969 419.898438 221.242188 C 421.746094 220.820312 423.597656 220.464844 425.457031 220.183594 C 427.316406 219.898438 429.175781 219.6875 431.042969 219.542969 C 432.90625 219.402344 434.773438 219.332031 436.640625 219.332031 C 438.507812 219.332031 440.375 219.402344 442.238281 219.542969 C 444.105469 219.6875 445.964844 219.898438 447.824219 220.183594 C 449.683594 220.464844 451.535156 220.820312 453.382812 221.242188 C 455.230469 221.667969 457.070312 222.164062 458.902344 222.726562 C 460.734375 223.289062 462.554688 223.921875 464.367188 224.625 C 466.175781 225.328125 467.976562 226.101562 469.765625 226.9375 C 471.550781 227.777344 473.324219 228.683594 475.082031 229.660156 C 476.839844 230.632812 478.582031 231.671875 480.308594 232.78125 C 482.03125 233.886719 483.738281 235.058594 485.425781 236.292969 C 487.113281 237.53125 488.78125 238.828125 490.429688 240.191406 C 492.078125 241.554688 493.699219 242.980469 495.300781 244.464844 C 496.90625 245.953125 498.480469 247.5 500.035156 249.105469 C 501.585938 250.710938 503.113281 252.375 504.613281 254.097656 C 506.113281 255.820312 507.585938 257.597656 509.027344 259.433594 C 510.472656 261.269531 511.886719 263.15625 513.269531 265.097656 C 514.652344 267.039062 516.003906 269.03125 517.324219 271.078125 C 518.644531 273.121094 519.933594 275.214844 521.1875 277.355469 C 522.441406 279.5 523.660156 281.6875 524.84375 283.921875 C 526.03125 286.15625 527.179688 288.4375 528.292969 290.757812 C 529.402344 293.082031 530.476562 295.445312 531.515625 297.847656 C 532.554688 300.253906 533.550781 302.695312 534.511719 305.175781 C 535.472656 307.652344 536.390625 310.167969 537.273438 312.71875 C 538.152344 315.269531 538.992188 317.851562 539.789062 320.464844 C 540.589844 323.078125 541.347656 325.71875 542.058594 328.390625 C 542.773438 331.0625 543.445312 333.757812 544.074219 336.480469 C 544.707031 339.203125 545.289062 341.949219 545.832031 344.714844 C 546.375 347.484375 546.871094 350.269531 547.328125 353.074219 C 547.78125 355.878906 548.1875 358.699219 548.554688 361.535156 C 548.917969 364.371094 549.238281 367.21875 549.511719 370.078125 C 549.785156 372.9375 550.015625 375.804688 550.195312 378.683594 C 550.378906 381.558594 550.515625 384.441406 550.609375 387.332031 C 550.699219 390.21875 550.746094 393.109375 550.746094 396 Z M 550.746094 396 " fill-opacity="1" fill-rule="nonzero"/></g><g clip-path="url(#26d246402e)"><path stroke-linecap="butt" transform="matrix(0.102684, 0, 0, 0.102684, 61.199999, 219.280351)" fill="none" stroke-linejoin="miter" d="M 4767.498328 1721.003685 C 4767.498328 1749.154354 4767.04183 1777.305022 4766.166877 1805.417649 C 4765.253882 1833.530276 4763.922432 1861.604862 4762.134484 1889.641406 C 4760.384578 1917.677951 4758.140132 1945.600371 4755.477231 1973.446708 C 4752.81433 2001.293045 4749.694932 2029.025257 4746.157077 2056.643346 C 4742.581182 2084.261434 4738.624872 2111.727357 4734.212064 2139.041113 C 4729.761215 2166.35487 4724.929952 2193.47842 4719.642191 2220.449804 C 4714.35443 2247.383146 4708.686255 2274.126281 4702.523541 2300.603126 C 4696.398869 2327.118013 4689.85574 2353.40465 4682.894156 2379.424998 C 4675.970613 2405.407304 4668.590573 2431.161362 4660.792077 2456.611088 C 4653.031623 2482.060814 4644.852712 2507.206209 4636.293387 2532.047272 C 4627.696021 2556.888334 4618.756281 2581.348983 4609.398086 2605.5053 C 4600.039891 2629.661617 4590.339323 2653.437519 4580.220299 2676.871049 C 4570.101275 2700.266537 4559.639877 2723.281611 4548.836107 2745.91627 C 4537.994296 2768.512888 4526.810111 2790.691049 4515.245512 2812.488797 C 4503.718955 2834.248503 4491.850024 2855.551711 4479.638721 2876.398423 C 4467.427417 2897.283176 4454.873741 2917.67339 4442.015733 2937.569065 C 4429.157724 2957.502781 4415.995385 2976.903918 4402.528714 2995.810516 C 4389.062042 3014.717113 4375.29104 3033.091131 4361.215705 3050.970609 C 4347.178413 3068.812047 4332.836788 3086.158945 4318.228874 3102.935222 C 4303.620959 3119.673457 4288.746755 3135.917154 4273.644301 3151.552187 C 4258.503807 3167.187221 4243.173105 3182.251633 4227.538071 3196.707381 C 4211.941079 3211.201172 4196.15388 3225.086299 4180.100391 3238.362763 C 4164.046901 3251.601185 4147.803205 3264.268986 4131.369301 3276.328124 C 4114.935397 3288.34922 4098.311286 3299.761653 4081.535009 3310.527382 C 4064.720691 3321.293111 4047.754207 3331.450176 4030.635557 3340.922496 C 4013.516907 3350.394815 3996.246092 3359.258472 3978.861152 3367.399341 C 3961.43817 3375.578251 3943.901065 3383.110457 3926.287876 3389.919876 C 3908.636646 3396.767335 3890.909333 3402.930049 3873.067896 3408.446059 C 3855.226459 3413.924027 3837.308938 3418.75529 3819.315335 3422.863766 C 3801.321732 3427.010283 3783.290088 3430.472055 3765.182361 3433.211039 C 3747.074633 3435.988064 3728.966906 3438.042302 3710.783096 3439.411794 C 3692.637327 3440.819328 3674.453517 3441.504074 3656.269706 3441.504074 C 3638.085896 3441.504074 3619.902086 3440.819328 3601.756317 3439.411794 C 3583.572507 3438.042302 3565.46478 3435.988064 3547.357052 3433.211039 C 3529.249325 3430.472055 3511.21768 3427.010283 3493.224077 3422.863766 C 3475.230474 3418.75529 3457.312954 3413.924027 3439.471517 3408.446059 C 3421.63008 3402.930049 3403.902767 3396.767335 3386.251537 3389.919876 C 3368.638348 3383.110457 3351.101242 3375.578251 3333.678261 3367.399341 C 3316.293321 3359.258472 3299.022506 3350.394815 3281.903856 3340.922496 C 3264.785206 3331.450176 3247.818722 3321.293111 3231.004404 3310.527382 C 3214.228127 3299.761653 3197.604016 3288.34922 3181.170112 3276.328124 C 3164.736208 3264.268986 3148.492512 3251.601185 3132.439022 3238.362763 C 3116.385533 3225.086299 3100.598334 3211.201172 3085.001342 3196.707381 C 3069.366308 3182.251633 3054.035606 3167.187221 3038.895111 3151.552187 C 3023.792658 3135.917154 3008.918454 3119.673457 2994.310539 3102.935222 C 2979.702625 3086.158945 2965.361 3068.812047 2951.323707 3050.970609 C 2937.248373 3033.091131 2923.47737 3014.717113 2910.010699 2995.810516 C 2896.544028 2976.903918 2883.381688 2957.502781 2870.52368 2937.569065 C 2857.665672 2917.67339 2845.111996 2897.283176 2832.900692 2876.398423 C 2820.689389 2855.551711 2808.820458 2834.248503 2797.2939 2812.488797 C 2785.729302 2790.691049 2774.545117 2768.512888 2763.703305 2745.91627 C 2752.899535 2723.281611 2742.438138 2700.266537 2732.319114 2676.871049 C 2722.20009 2653.437519 2712.499522 2629.661617 2703.141327 2605.5053 C 2693.783131 2581.348983 2684.843392 2556.888334 2676.246026 2532.047272 C 2667.686701 2507.206209 2659.50779 2482.060814 2651.747336 2456.611088 C 2643.94884 2431.161362 2636.5688 2405.407304 2629.645257 2379.424998 C 2622.683672 2353.40465 2616.140544 2327.118013 2610.015872 2300.603126 C 2603.853158 2274.126281 2598.184983 2247.383146 2592.897222 2220.449804 C 2587.609461 2193.47842 2582.778198 2166.35487 2578.327349 2139.041113 C 2573.914541 2111.727357 2569.958231 2084.261434 2566.382335 2056.643346 C 2562.844481 2029.025257 2559.725083 2001.293045 2557.062182 1973.446708 C 2554.39928 1945.600371 2552.154835 1917.677951 2550.404929 1889.641406 C 2548.616981 1861.604862 2547.28553 1833.530276 2546.372536 1805.417649 C 2545.497583 1777.305022 2545.041085 1749.154354 2545.041085 1721.003685 C 2545.041085 1692.853017 2545.497583 1664.702348 2546.372536 1636.589721 C 2547.28553 1608.439052 2548.616981 1580.364467 2550.404929 1552.365964 C 2552.154835 1524.32942 2554.39928 1496.407 2557.062182 1468.560663 C 2559.725083 1440.714326 2562.844481 1412.982113 2566.382335 1385.364025 C 2569.958231 1357.745936 2573.914541 1330.280014 2578.327349 1302.966257 C 2582.778198 1275.6525 2587.609461 1248.52895 2592.897222 1221.557567 C 2598.184983 1194.624224 2603.853158 1167.881089 2610.015872 1141.366203 C 2616.140544 1114.851316 2622.683672 1088.60272 2629.645257 1062.582372 C 2636.5688 1036.562024 2643.94884 1010.846008 2651.747336 985.396282 C 2659.50779 959.946556 2667.686701 934.801162 2676.246026 909.960099 C 2684.843392 885.119036 2693.783131 860.620346 2703.141327 836.50207 C 2712.499522 812.345753 2722.20009 788.569851 2732.319114 765.136321 C 2742.438138 741.740833 2752.899535 718.72576 2763.703305 696.0911 C 2774.545117 673.494483 2785.729302 651.278279 2797.2939 629.518573 C 2808.820458 607.758867 2820.689389 586.455659 2832.900692 565.570906 C 2845.111996 544.724195 2857.665672 524.333981 2870.52368 504.438305 C 2883.381688 484.504589 2896.544028 465.103452 2910.010699 446.196855 C 2923.47737 427.290257 2937.248373 408.916239 2951.323707 391.036761 C 2965.361 373.157282 2979.702625 355.848425 2994.310539 339.072148 C 3008.918454 322.295871 3023.792658 306.090216 3038.895111 290.455183 C 3054.035606 274.820149 3069.366308 259.755737 3085.001342 245.261947 C 3100.598334 230.806199 3116.385533 216.921072 3132.439022 203.644608 C 3148.492512 190.368144 3164.736208 177.738384 3181.170112 165.679246 C 3197.604016 153.65815 3214.228127 142.245717 3231.004404 131.479988 C 3247.818722 120.676218 3264.785206 110.557194 3281.903856 101.084874 C 3299.022506 91.574513 3316.293321 82.748898 3333.678261 74.569988 C 3351.101242 66.429119 3368.638348 58.896913 3386.251537 52.049453 C 3403.902767 45.201993 3421.63008 39.039279 3439.471517 33.561311 C 3457.312954 28.083343 3475.230474 23.25208 3493.224077 19.105563 C 3511.21768 14.997087 3529.249325 11.535315 3547.357052 8.796331 C 3565.46478 6.019306 3583.572507 3.965068 3601.756317 2.557534 C 3619.902086 1.188043 3638.085896 0.503297 3656.269706 0.503297 C 3674.453517 0.503297 3692.637327 1.188043 3710.783096 2.557534 C 3728.966906 3.965068 3747.074633 6.019306 3765.182361 8.796331 C 3783.290088 11.535315 3801.321732 14.997087 3819.315335 19.105563 C 3837.308938 23.25208 3855.226459 28.083343 3873.067896 33.561311 C 3890.909333 39.039279 3908.636646 45.201993 3926.287876 52.049453 C 3943.901065 58.896913 3961.43817 66.429119 3978.861152 74.569988 C 3996.246092 82.748898 4013.516907 91.574513 4030.635557 101.084874 C 4047.754207 110.557194 4064.720691 120.676218 4081.535009 131.479988 C 4098.311286 142.245717 4114.935397 153.65815 4131.369301 165.679246 C 4147.803205 177.738384 4164.046901 190.368144 4180.100391 203.644608 C 4196.15388 216.921072 4211.941079 230.806199 4227.538071 245.261947 C 4243.173105 259.755737 4258.503807 274.820149 4273.644301 290.455183 C 4288.746755 306.090216 4303.620959 322.295871 4318.228874 339.072148 C 4332.836788 355.848425 4347.178413 373.157282 4361.215705 391.036761 C 4375.29104 408.916239 4389.062042 427.290257 4402.528714 446.196855 C 4415.995385 465.103452 4429.157724 484.504589 4442.015733 504.438305 C 4454.873741 524.333981 4467.427417 544.724195 4479.638721 565.570906 C 4491.850024 586.455659 4503.718955 607.758867 4515.245512 629.518573 C 4526.810111 651.278279 4537.994296 673.494483 4548.836107 696.0911 C 4559.639877 718.72576 4570.101275 741.740833 4580.220299 765.136321 C 4590.339323 788.569851 4600.039891 812.345753 4609.398086 836.50207 C 4618.756281 860.620346 4627.696021 885.119036 4636.293387 909.960099 C 4644.852712 934.801162 4653.031623 959.946556 4660.792077 985.396282 C 4668.590573 1010.846008 4675.970613 1036.562024 4682.894156 1062.582372 C 4689.85574 1088.60272 4696.398869 1114.851316 4702.523541 1141.366203 C 4708.686255 1167.881089 4714.35443 1194.624224 4719.642191 1221.557567 C 4724.929952 1248.52895 4729.761215 1275.6525 4734.212064 1302.966257 C 4738.624872 1330.280014 4742.581182 1357.745936 4746.157077 1385.364025 C 4749.694932 1412.982113 4752.81433 1440.714326 4755.477231 1468.560663 C 4758.140132 1496.407 4760.384578 1524.32942 4762.134484 1552.365964 C 4763.922432 1580.364467 4765.253882 1608.439052 4766.166877 1636.589721 C 4767.04183 1664.702348 4767.498328 1692.853017 4767.498328 1721.003685 Z M 4767.498328 1721.003685 " stroke="#000000" stroke-width="1" stroke-opacity="1" stroke-miterlimit="10"/></g><path stroke-linecap="butt" transform="matrix(0.102684, 0, 0, 0.102684, 61.199999, 219.280351)" fill-opacity="1" fill="#f2f2f2" fill-rule="nonzero" stroke-linejoin="miter" d="M 4568.883948 1894.891126 C 4568.883948 1918.020324 4568.541575 1941.149522 4567.818788 1964.240678 C 4567.057959 1987.331835 4565.954757 2010.38495 4564.509182 2033.400023 C 4563.025566 2056.415097 4561.199577 2079.354088 4559.031214 2102.216996 C 4556.824811 2125.117945 4554.276034 2147.866728 4551.346843 2170.57747 C 4548.455693 2193.250171 4545.184129 2215.808747 4541.53215 2238.215158 C 4537.918213 2260.65961 4533.923861 2282.951896 4529.587137 2305.053975 C 4525.250412 2327.194095 4520.571314 2349.144009 4515.549844 2370.941756 C 4510.528373 2392.701462 4505.126488 2414.270961 4499.420272 2435.650252 C 4493.714055 2456.991502 4487.665465 2478.142545 4481.274503 2499.027298 C 4474.88354 2519.950092 4468.188246 2540.606596 4461.150579 2560.99681 C 4454.112912 2581.387024 4446.732872 2601.472907 4439.0485 2621.330541 C 4431.364128 2641.150133 4423.375425 2660.703435 4415.08239 2679.914364 C 4406.789355 2699.163335 4398.191989 2718.031891 4389.290291 2736.634157 C 4380.388593 2755.198382 4371.220605 2773.420234 4361.748286 2791.299712 C 4352.275966 2809.179191 4342.499315 2826.678255 4332.494415 2843.796905 C 4322.451474 2860.953596 4312.142243 2877.691832 4301.604763 2894.049653 C 4291.029241 2910.407474 4280.225471 2926.346839 4269.155411 2941.867748 C 4258.085351 2957.388657 4246.787042 2972.49111 4235.222443 2987.175108 C 4223.695885 3001.821064 4211.903038 3016.048564 4199.919983 3029.819566 C 4187.936928 3043.590569 4175.725624 3056.905075 4163.286072 3069.763083 C 4150.884562 3082.621091 4138.254802 3094.98456 4125.472877 3106.853491 C 4112.65291 3118.760463 4099.642736 3130.134854 4086.480397 3141.052749 C 4073.318057 3151.970643 4059.96551 3162.355957 4046.460798 3172.246733 C 4032.956085 3182.137508 4019.299207 3191.495704 4005.528204 3200.35936 C 3991.71916 3209.184975 3977.795991 3217.516051 3963.720657 3225.314547 C 3949.645323 3233.075002 3935.493905 3240.340918 3921.190323 3247.074253 C 3906.88674 3253.769547 3892.507074 3259.932261 3878.013284 3265.562395 C 3863.519493 3271.154487 3848.94962 3276.252041 3834.303664 3280.740931 C 3819.657708 3285.267863 3804.973711 3289.224173 3790.175589 3292.609862 C 3775.415509 3295.99555 3760.579346 3298.810617 3745.705141 3301.093104 C 3730.868978 3303.37559 3715.956732 3305.049414 3701.044486 3306.190657 C 3686.13224 3307.331901 3671.219994 3307.902522 3656.269706 3307.902522 C 3641.319419 3307.902522 3626.407173 3307.331901 3611.494927 3306.190657 C 3596.582681 3305.049414 3581.670435 3303.37559 3566.834272 3301.093104 C 3551.960067 3298.810617 3537.123904 3295.99555 3522.363823 3292.609862 C 3507.603743 3289.224173 3492.881704 3285.267863 3478.235748 3280.740931 C 3463.589792 3276.252041 3449.019919 3271.154487 3434.526129 3265.562395 C 3420.032339 3259.932261 3405.652673 3253.769547 3391.34909 3247.074253 C 3377.045507 3240.340918 3362.89409 3233.075002 3348.818756 3225.314547 C 3334.743422 3217.516051 3320.820253 3209.184975 3307.011209 3200.35936 C 3293.240206 3191.495704 3279.583328 3182.137508 3266.078615 3172.246733 C 3252.573902 3162.355957 3239.221356 3151.970643 3226.059016 3141.052749 C 3212.896676 3130.134854 3199.886503 3118.760463 3187.066536 3106.853491 C 3174.284611 3094.98456 3161.654851 3082.621091 3149.253341 3069.763083 C 3136.813788 3056.905075 3124.602485 3043.590569 3112.61943 3029.819566 C 3100.636375 3016.048564 3088.843527 3001.821064 3077.31697 2987.175108 C 3065.752371 2972.49111 3054.454062 2957.388657 3043.384002 2941.867748 C 3032.313942 2926.346839 3021.510172 2910.407474 3010.93465 2894.049653 C 3000.39717 2877.691832 2990.087939 2860.953596 2980.044998 2843.796905 C 2970.040098 2826.678255 2960.263447 2809.179191 2950.791127 2791.299712 C 2941.318808 2773.420234 2932.15082 2755.198382 2923.249122 2736.634157 C 2914.347424 2718.031891 2905.750057 2699.163335 2897.457023 2679.914364 C 2889.163988 2660.703435 2881.175285 2641.150133 2873.490913 2621.330541 C 2865.806541 2601.472907 2858.426501 2581.387024 2851.388834 2560.99681 C 2844.351167 2540.606596 2837.655873 2519.950092 2831.26491 2499.027298 C 2824.873947 2478.142545 2818.825358 2456.991502 2813.119141 2435.612211 C 2807.412925 2414.270961 2802.01104 2392.701462 2796.989569 2370.941756 C 2791.968098 2349.144009 2787.289001 2327.194095 2782.952276 2305.053975 C 2778.615551 2282.951896 2774.6212 2260.65961 2771.007263 2238.215158 C 2767.355284 2215.808747 2764.08372 2193.250171 2761.19257 2170.57747 C 2758.263379 2147.866728 2755.714602 2125.117945 2753.508198 2102.216996 C 2751.339836 2079.354088 2749.513847 2056.415097 2748.03023 2033.400023 C 2746.584656 2010.38495 2745.481454 1987.331835 2744.720625 1964.240678 C 2743.997837 1941.149522 2743.655464 1918.020324 2743.655464 1894.891126 C 2743.655464 1871.761928 2743.997837 1848.670771 2744.720625 1825.579615 C 2745.481454 1802.488458 2746.584656 1779.397302 2748.03023 1756.420269 C 2749.513847 1733.405196 2751.339836 1710.428164 2753.508198 1687.565256 C 2755.714602 1664.702348 2758.263379 1641.915523 2761.19257 1619.242822 C 2764.08372 1596.570122 2767.355284 1574.011545 2771.007263 1551.567093 C 2774.6212 1529.122641 2778.615551 1506.868397 2782.952276 1484.728276 C 2787.289001 1462.588156 2791.968098 1440.638243 2796.989569 1418.878537 C 2802.01104 1397.118831 2807.412925 1375.549332 2813.119141 1354.17004 C 2818.825358 1332.790749 2824.873947 1311.677747 2831.26491 1290.754953 C 2837.655873 1269.8702 2844.351167 1249.213696 2851.388834 1228.823482 C 2858.426501 1208.433268 2865.806541 1188.309345 2873.490913 1168.489752 C 2881.175285 1148.632118 2889.163988 1129.116858 2897.457023 1109.867887 C 2905.750057 1090.656958 2914.347424 1071.75036 2923.249122 1053.186135 C 2932.15082 1034.583869 2941.318808 1016.362018 2950.791127 998.52058 C 2960.263447 980.641102 2970.040098 963.103996 2980.044998 945.985346 C 2990.087939 928.866696 3000.39717 912.128461 3010.93465 895.77064 C 3021.510172 879.412819 3032.313942 863.473454 3043.384002 847.952545 C 3054.454062 832.393594 3065.752371 817.291141 3077.31697 802.645185 C 3088.843527 787.961188 3100.636375 773.733688 3112.61943 759.962685 C 3124.602485 746.191682 3136.813788 732.877177 3149.253341 720.019169 C 3161.654851 707.199202 3174.284611 694.835733 3187.066536 682.928761 C 3199.886503 671.05983 3212.896676 659.647397 3226.059016 648.729503 C 3239.221356 637.84965 3252.573902 627.464335 3266.078615 617.57356 C 3279.583328 607.682784 3293.240206 598.324589 3307.011209 589.460933 C 3320.820253 580.597276 3334.743422 572.304242 3348.818756 564.505746 C 3362.89409 556.707249 3377.045507 549.441334 3391.34909 542.74604 C 3405.652673 536.012704 3420.032339 529.84999 3434.526129 524.257898 C 3449.019919 518.627764 3463.589792 513.568252 3478.235748 509.04132 C 3492.881704 504.55243 3507.603743 500.59612 3522.363823 497.210431 C 3537.123904 493.786701 3551.960067 490.971634 3566.834272 488.689148 C 3581.670435 486.444702 3596.582681 484.732837 3611.494927 483.591594 C 3626.407173 482.450351 3641.319419 481.917771 3656.269706 481.917771 C 3671.219994 481.917771 3686.13224 482.450351 3701.044486 483.591594 C 3715.956732 484.732837 3730.868978 486.444702 3745.705141 488.689148 C 3760.579346 490.971634 3775.415509 493.786701 3790.175589 497.210431 C 3804.973711 500.59612 3819.657708 504.55243 3834.303664 509.04132 C 3848.94962 513.568252 3863.519493 518.627764 3878.013284 524.257898 C 3892.507074 529.84999 3906.88674 536.012704 3921.190323 542.74604 C 3935.493905 549.441334 3949.645323 556.707249 3963.720657 564.505746 C 3977.795991 572.304242 3991.71916 580.597276 4005.528204 589.460933 C 4019.299207 598.324589 4032.956085 607.682784 4046.460798 617.57356 C 4059.96551 627.464335 4073.318057 637.84965 4086.480397 648.729503 C 4099.642736 659.647397 4112.65291 671.05983 4125.472877 682.928761 C 4138.254802 694.835733 4150.884562 707.199202 4163.286072 720.019169 C 4175.725624 732.877177 4187.936928 746.191682 4199.919983 759.962685 C 4211.903038 773.733688 4223.695885 787.961188 4235.222443 802.645185 C 4246.787042 817.291141 4258.085351 832.393594 4269.155411 847.952545 C 4280.225471 863.473454 4291.029241 879.412819 4301.604763 895.77064 C 4312.142243 912.128461 4322.451474 928.866696 4332.494415 945.985346 C 4342.499315 963.103996 4352.275966 980.641102 4361.748286 998.52058 C 4371.220605 1016.362018 4380.388593 1034.583869 4389.290291 1053.186135 C 4398.191989 1071.75036 4406.789355 1090.656958 4415.08239 1109.867887 C 4423.375425 1129.116858 4431.364128 1148.632118 4439.0485 1168.489752 C 4446.732872 1188.309345 4454.112912 1208.433268 4461.150579 1228.823482 C 4468.188246 1249.213696 4474.88354 1269.8702 4481.274503 1290.754953 C 4487.665465 1311.677747 4493.714055 1332.790749 4499.420272 1354.17004 C 4505.126488 1375.549332 4510.528373 1397.118831 4515.549844 1418.878537 C 4520.571314 1440.638243 4525.250412 1462.588156 4529.587137 1484.728276 C 4533.923861 1506.868397 4537.918213 1529.122641 4541.53215 1551.567093 C 4545.184129 1574.011545 4548.455693 1596.570122 4551.346843 1619.242822 C 4554.276034 1641.915523 4556.824811 1664.702348 4559.031214 1687.565256 C 4561.199577 1710.428164 4563.025566 1733.405196 4564.509182 1756.420269 C 4565.954757 1779.397302 4567.057959 1802.488458 4567.818788 1825.579615 C 4568.541575 1848.670771 4568.883948 1871.761928 4568.883948 1894.891126 Z M 4568.883948 1894.891126 " stroke="#000000" stroke-width="1" stroke-opacity="1" stroke-miterlimit="10"/><path stroke-linecap="butt" transform="matrix(0.102684, 0, 0, 0.102684, 61.199999, 219.280351)" fill-opacity="1" fill="#00bf63" fill-rule="nonzero" stroke-linejoin="miter" d="M 3936.711232 2389.696188 L 3352.280527 2233.155646 C 3219.287639 2729.520407 3373.69786 3208.652395 3694.31115 3294.549975 C 4014.924441 3380.447556 4388.149048 3042.639533 4521.141936 2546.23673 C 4654.096783 2049.833927 4499.686562 1570.70194 4179.073272 1484.842401 C 3923.092395 1416.253677 3625.79851 1615.704968 3449.172085 1974.435785 Z M 3936.711232 2389.696188 " stroke="#000000" stroke-width="1" stroke-opacity="1" stroke-miterlimit="10"/><g clip-path="url(#83ff29b274)"><path fill="#00bf63" d="M 289.460938 396 C 289.460938 398.890625 289.417969 401.78125 289.324219 404.667969 C 289.234375 407.554688 289.097656 410.4375 288.914062 413.316406 C 288.730469 416.195312 288.5 419.0625 288.226562 421.921875 C 287.953125 424.78125 287.632812 427.628906 287.269531 430.464844 C 286.90625 433.300781 286.496094 436.121094 286.042969 438.925781 C 285.589844 441.730469 285.089844 444.515625 284.550781 447.285156 C 284.007812 450.050781 283.421875 452.796875 282.792969 455.515625 C 282.164062 458.238281 281.492188 460.9375 280.777344 463.609375 C 280.0625 466.277344 279.304688 468.921875 278.507812 471.535156 C 277.707031 474.148438 276.871094 476.730469 275.988281 479.28125 C 275.109375 481.832031 274.1875 484.34375 273.230469 486.824219 C 272.269531 489.304688 271.269531 491.746094 270.230469 494.152344 C 269.195312 496.554688 268.121094 498.917969 267.007812 501.242188 C 265.894531 503.5625 264.746094 505.839844 263.5625 508.078125 C 262.378906 510.3125 261.15625 512.5 259.902344 514.640625 C 258.648438 516.785156 257.363281 518.878906 256.042969 520.921875 C 254.722656 522.96875 253.371094 524.960938 251.984375 526.902344 C 250.601562 528.84375 249.1875 530.730469 247.746094 532.566406 C 246.300781 534.398438 244.828125 536.179688 243.328125 537.902344 C 241.828125 539.621094 240.304688 541.289062 238.75 542.894531 C 237.199219 544.5 235.621094 546.046875 234.019531 547.53125 C 232.417969 549.019531 230.792969 550.445312 229.144531 551.808594 C 227.5 553.167969 225.832031 554.46875 224.144531 555.707031 C 222.457031 556.941406 220.75 558.113281 219.023438 559.21875 C 217.296875 560.324219 215.554688 561.367188 213.796875 562.339844 C 212.039062 563.3125 210.265625 564.222656 208.480469 565.058594 C 206.691406 565.898438 204.894531 566.671875 203.082031 567.371094 C 201.269531 568.074219 199.449219 568.707031 197.617188 569.273438 C 195.785156 569.835938 193.945312 570.332031 192.101562 570.753906 C 190.253906 571.179688 188.398438 571.535156 186.542969 571.816406 C 184.683594 572.101562 182.820312 572.3125 180.957031 572.453125 C 179.089844 572.597656 177.222656 572.667969 175.355469 572.667969 C 173.488281 572.667969 171.625 572.597656 169.757812 572.453125 C 167.894531 572.3125 166.03125 572.101562 164.171875 571.816406 C 162.3125 571.535156 160.460938 571.179688 158.613281 570.753906 C 156.765625 570.332031 154.925781 569.835938 153.097656 569.273438 C 151.265625 568.707031 149.441406 568.074219 147.632812 567.371094 C 145.820312 566.671875 144.019531 565.898438 142.234375 565.058594 C 140.445312 564.222656 138.675781 563.3125 136.914062 562.339844 C 135.15625 561.367188 133.414062 560.324219 131.691406 559.21875 C 129.964844 558.113281 128.257812 556.941406 126.570312 555.707031 C 124.882812 554.46875 123.214844 553.167969 121.566406 551.808594 C 119.921875 550.445312 118.296875 549.019531 116.695312 547.53125 C 115.09375 546.046875 113.515625 544.5 111.964844 542.894531 C 110.410156 541.289062 108.882812 539.621094 107.382812 537.902344 C 105.882812 536.179688 104.414062 534.398438 102.96875 532.566406 C 101.527344 530.730469 100.113281 528.84375 98.726562 526.902344 C 97.34375 524.960938 95.992188 522.96875 94.671875 520.921875 C 93.351562 518.878906 92.0625 516.785156 90.808594 514.640625 C 89.554688 512.5 88.335938 510.3125 87.152344 508.078125 C 85.96875 505.839844 84.820312 503.5625 83.707031 501.242188 C 82.59375 498.917969 81.519531 496.554688 80.480469 494.152344 C 79.445312 491.746094 78.445312 489.304688 77.484375 486.824219 C 76.523438 484.34375 75.605469 481.832031 74.726562 479.28125 C 73.84375 476.730469 73.003906 474.148438 72.207031 471.535156 C 71.410156 468.921875 70.652344 466.277344 69.9375 463.609375 C 69.222656 460.9375 68.550781 458.238281 67.921875 455.515625 C 67.292969 452.796875 66.707031 450.050781 66.164062 447.285156 C 65.621094 444.515625 65.125 441.730469 64.671875 438.925781 C 64.21875 436.121094 63.808594 433.300781 63.445312 430.464844 C 63.078125 427.628906 62.761719 424.78125 62.488281 421.921875 C 62.210938 419.0625 61.984375 416.195312 61.800781 413.316406 C 61.617188 410.4375 61.480469 407.554688 61.390625 404.667969 C 61.296875 401.78125 61.25 398.890625 61.25 396 C 61.25 393.109375 61.296875 390.21875 61.390625 387.332031 C 61.480469 384.441406 61.617188 381.558594 61.800781 378.683594 C 61.984375 375.804688 62.210938 372.9375 62.488281 370.078125 C 62.761719 367.21875 63.078125 364.371094 63.445312 361.535156 C 63.808594 358.699219 64.21875 355.878906 64.671875 353.074219 C 65.125 350.269531 65.621094 347.484375 66.164062 344.714844 C 66.707031 341.949219 67.292969 339.203125 67.921875 336.480469 C 68.550781 333.757812 69.222656 331.0625 69.9375 328.390625 C 70.652344 325.71875 71.410156 323.078125 72.207031 320.464844 C 73.003906 317.851562 73.84375 315.269531 74.726562 312.71875 C 75.605469 310.167969 76.523438 307.652344 77.484375 305.175781 C 78.445312 302.695312 79.445312 300.253906 80.480469 297.847656 C 81.519531 295.445312 82.59375 293.082031 83.707031 290.757812 C 84.820312 288.4375 85.96875 286.15625 87.152344 283.921875 C 88.335938 281.6875 89.554688 279.5 90.808594 277.355469 C 92.0625 275.214844 93.351562 273.121094 94.671875 271.078125 C 95.992188 269.03125 97.34375 267.039062 98.726562 265.097656 C 100.113281 263.15625 101.527344 261.269531 102.96875 259.433594 C 104.414062 257.597656 105.882812 255.820312 107.382812 254.097656 C 108.882812 252.375 110.410156 250.710938 111.964844 249.105469 C 113.515625 247.5 115.09375 245.953125 116.695312 244.464844 C 118.296875 242.980469 119.921875 241.554688 121.566406 240.191406 C 123.214844 238.828125 124.882812 237.53125 126.570312 236.292969 C 128.257812 235.058594 129.964844 233.886719 131.691406 232.78125 C 133.414062 231.671875 135.15625 230.632812 136.914062 229.660156 C 138.675781 228.683594 140.445312 227.777344 142.234375 226.9375 C 144.019531 226.101562 145.820312 225.328125 147.632812 224.625 C 149.441406 223.921875 151.265625 223.289062 153.097656 222.726562 C 154.925781 222.164062 156.765625 221.667969 158.613281 221.242188 C 160.460938 220.820312 162.3125 220.464844 164.171875 220.183594 C 166.03125 219.898438 167.894531 219.6875 169.757812 219.542969 C 171.625 219.402344 173.488281 219.332031 175.355469 219.332031 C 177.222656 219.332031 179.089844 219.402344 180.957031 219.542969 C 182.820312 219.6875 184.683594 219.898438 186.542969 220.183594 C 188.398438 220.464844 190.253906 220.820312 192.101562 221.242188 C 193.945312 221.667969 195.785156 222.164062 197.617188 222.726562 C 199.449219 223.289062 201.269531 223.921875 203.082031 224.625 C 204.894531 225.328125 206.691406 226.101562 208.480469 226.9375 C 210.265625 227.777344 212.039062 228.683594 213.796875 229.660156 C 215.554688 230.632812 217.296875 231.671875 219.023438 232.78125 C 220.75 233.886719 222.457031 235.058594 224.144531 236.292969 C 225.832031 237.53125 227.5 238.828125 229.144531 240.191406 C 230.792969 241.554688 232.417969 242.980469 234.019531 244.464844 C 235.621094 245.953125 237.199219 247.5 238.75 249.105469 C 240.304688 250.710938 241.828125 252.375 243.328125 254.097656 C 244.828125 255.820312 246.300781 257.597656 247.746094 259.433594 C 249.1875 261.269531 250.601562 263.15625 251.984375 265.097656 C 253.371094 267.039062 254.722656 269.03125 256.042969 271.078125 C 257.363281 273.121094 258.648438 275.214844 259.902344 277.355469 C 261.15625 279.5 262.378906 281.6875 263.5625 283.921875 C 264.746094 286.15625 265.894531 288.4375 267.007812 290.757812 C 268.121094 293.082031 269.195312 295.445312 270.230469 297.847656 C 271.269531 300.253906 272.269531 302.695312 273.230469 305.175781 C 274.1875 307.652344 275.109375 310.167969 275.988281 312.71875 C 276.871094 315.269531 277.707031 317.851562 278.507812 320.464844 C 279.304688 323.078125 280.0625 325.71875 280.777344 328.390625 C 281.492188 331.0625 282.164062 333.757812 282.792969 336.480469 C 283.421875 339.203125 284.007812 341.949219 284.550781 344.714844 C 285.089844 347.484375 285.589844 350.269531 286.042969 353.074219 C 286.496094 355.878906 286.90625 358.699219 287.269531 361.535156 C 287.632812 364.371094 287.953125 367.21875 288.226562 370.078125 C 288.5 372.9375 288.730469 375.804688 288.914062 378.683594 C 289.097656 381.558594 289.234375 384.441406 289.324219 387.332031 C 289.417969 390.21875 289.460938 393.109375 289.460938 396 Z M 289.460938 396 " fill-opacity="1" fill-rule="nonzero"/></g><g clip-path="url(#9e4f3abb21)"><path stroke-linecap="butt" transform="matrix(0.102684, 0, 0, 0.102684, 61.199999, 219.280351)" fill="none" stroke-linejoin="miter" d="M 2222.944179 1721.003685 C 2222.944179 1749.154354 2222.525723 1777.305022 2221.612728 1805.417649 C 2220.737775 1833.530276 2219.406324 1861.604862 2217.618377 1889.641406 C 2215.830429 1917.677951 2213.585983 1945.600371 2210.923082 1973.446708 C 2208.260181 2001.293045 2205.140783 2029.025257 2201.602929 2056.643346 C 2198.065074 2084.261434 2194.070723 2111.727357 2189.657915 2139.041113 C 2185.245108 2166.35487 2180.375803 2193.47842 2175.126084 2220.449804 C 2169.838323 2247.383146 2164.132106 2274.126281 2158.007434 2300.603126 C 2151.882761 2327.118013 2145.339633 2353.40465 2138.378049 2379.424998 C 2131.416464 2405.407304 2124.036424 2431.161362 2116.27597 2456.611088 C 2108.477474 2482.060814 2100.336605 2507.206209 2091.739238 2532.047272 C 2083.179913 2556.888334 2074.202133 2581.348983 2064.881979 2605.5053 C 2055.523784 2629.661617 2045.785174 2653.437519 2035.66615 2676.871049 C 2025.585167 2700.266537 2015.12377 2723.281611 2004.281959 2745.91627 C 1993.440147 2768.512888 1982.255962 2790.691049 1970.729405 2812.488797 C 1959.202847 2834.248503 1947.295875 2855.551711 1935.084572 2876.398423 C 1922.873268 2897.283176 1910.357633 2917.67339 1897.499625 2937.569065 C 1884.641617 2957.502781 1871.479277 2976.903918 1857.974565 2995.810516 C 1844.507894 3014.717113 1830.736891 3033.091131 1816.699598 3050.970609 C 1802.624264 3068.812047 1788.282639 3086.158945 1773.674725 3102.935222 C 1759.06681 3119.673457 1744.230647 3135.917154 1729.090152 3151.552187 C 1713.987699 3167.187221 1698.618956 3182.251633 1683.021964 3196.707381 C 1667.424972 3211.201172 1651.599731 3225.086299 1635.546242 3238.362763 C 1619.530794 3251.601185 1603.287097 3264.268986 1586.853193 3276.328124 C 1570.419289 3288.34922 1553.795178 3299.761653 1536.98086 3310.527382 C 1520.166542 3321.293111 1503.200058 3331.450176 1486.081408 3340.922496 C 1468.962758 3350.394815 1451.691943 3359.258472 1434.307003 3367.399341 C 1416.884021 3375.578251 1399.384957 3383.110457 1381.733727 3389.919876 C 1364.082497 3396.767335 1346.355184 3402.930049 1328.513747 3408.446059 C 1310.67231 3413.924027 1292.75479 3418.75529 1274.799228 3422.863766 C 1256.805625 3427.010283 1238.735939 3430.472055 1220.666253 3433.211039 C 1202.558526 3435.988064 1184.412757 3438.042302 1166.266988 3439.411794 C 1148.083178 3440.819328 1129.899368 3441.504074 1111.715558 3441.504074 C 1093.531747 3441.504074 1075.385978 3440.819328 1057.202168 3439.411794 C 1039.056399 3438.042302 1020.910631 3435.988064 1002.802903 3433.211039 C 984.695176 3430.472055 966.663531 3427.010283 948.669928 3422.863766 C 930.676325 3418.75529 912.758805 3413.924027 894.95541 3408.446059 C 877.113972 3402.930049 859.348618 3396.767335 841.735429 3389.919876 C 824.084199 3383.110457 806.547094 3375.578251 789.162154 3367.399341 C 771.739172 3359.258472 754.506398 3350.394815 737.349707 3340.922496 C 720.231057 3331.450176 703.264573 3321.293111 686.488296 3310.527382 C 669.673978 3299.761653 653.049867 3288.34922 636.615963 3276.328124 C 620.182059 3264.268986 603.938363 3251.601185 587.884873 3238.362763 C 571.869425 3225.086299 556.044185 3211.201172 540.447193 3196.707381 C 524.850201 3182.251633 509.481457 3167.187221 494.379004 3151.552187 C 479.238509 3135.917154 464.364305 3119.673457 449.75639 3102.935222 C 435.148476 3086.158945 420.844893 3068.812047 406.769558 3050.970609 C 392.732266 3033.091131 378.961263 3014.717113 365.45655 2995.810516 C 351.989879 2976.903918 338.827539 2957.502781 325.969531 2937.569065 C 313.111523 2917.67339 300.557847 2897.283176 288.346543 2876.398423 C 276.13524 2855.551711 264.266309 2834.248503 252.739752 2812.488797 C 241.213194 2790.691049 230.02901 2768.512888 219.187198 2745.91627 C 208.345386 2723.281611 197.883989 2700.266537 187.764965 2676.871049 C 177.683983 2653.437519 167.945373 2629.661617 158.587178 2605.5053 C 149.228982 2581.348983 140.289243 2556.888334 131.729918 2532.047272 C 123.132552 2507.206209 114.953641 2482.060814 107.193187 2456.611088 C 99.432732 2431.161362 92.052692 2405.407304 85.091108 2379.424998 C 78.129524 2353.40465 71.586395 2327.118013 65.461723 2300.603126 C 59.33705 2274.126281 53.630834 2247.383146 48.343073 2220.449804 C 43.055312 2193.47842 38.224049 2166.35487 33.811241 2139.041113 C 29.398434 2111.727357 25.404082 2084.261434 21.866228 2056.643346 C 18.290332 2029.025257 15.208975 2001.293045 12.546074 1973.446708 C 9.845132 1945.600371 7.638728 1917.677951 5.85078 1889.641406 C 4.062832 1861.604862 2.731382 1833.530276 1.856428 1805.417649 C 0.943434 1777.305022 0.486936 1749.154354 0.486936 1721.003685 C 0.486936 1692.853017 0.943434 1664.702348 1.856428 1636.589721 C 2.731382 1608.439052 4.062832 1580.364467 5.85078 1552.365964 C 7.638728 1524.32942 9.845132 1496.407 12.546074 1468.560663 C 15.208975 1440.714326 18.290332 1412.982113 21.866228 1385.364025 C 25.404082 1357.745936 29.398434 1330.280014 33.811241 1302.966257 C 38.224049 1275.6525 43.055312 1248.52895 48.343073 1221.557567 C 53.630834 1194.624224 59.33705 1167.881089 65.461723 1141.366203 C 71.586395 1114.851316 78.129524 1088.60272 85.091108 1062.582372 C 92.052692 1036.562024 99.432732 1010.846008 107.193187 985.396282 C 114.953641 959.946556 123.132552 934.801162 131.729918 909.960099 C 140.289243 885.119036 149.228982 860.620346 158.587178 836.50207 C 167.945373 812.345753 177.683983 788.569851 187.764965 765.136321 C 197.883989 741.740833 208.345386 718.72576 219.187198 696.0911 C 230.02901 673.494483 241.213194 651.278279 252.739752 629.518573 C 264.266309 607.758867 276.13524 586.455659 288.346543 565.570906 C 300.557847 544.724195 313.111523 524.333981 325.969531 504.438305 C 338.827539 484.504589 351.989879 465.103452 365.45655 446.196855 C 378.961263 427.290257 392.732266 408.916239 406.769558 391.036761 C 420.844893 373.157282 435.148476 355.848425 449.75639 339.072148 C 464.364305 322.295871 479.238509 306.090216 494.379004 290.455183 C 509.481457 274.820149 524.850201 259.755737 540.447193 245.261947 C 556.044185 230.806199 571.869425 216.921072 587.884873 203.644608 C 603.938363 190.368144 620.182059 177.738384 636.615963 165.679246 C 653.049867 153.65815 669.673978 142.245717 686.488296 131.479988 C 703.264573 120.676218 720.231057 110.557194 737.349707 101.084874 C 754.506398 91.574513 771.739172 82.748898 789.162154 74.569988 C 806.547094 66.429119 824.084199 58.896913 841.735429 52.049453 C 859.348618 45.201993 877.113972 39.039279 894.95541 33.561311 C 912.758805 28.083343 930.676325 23.25208 948.669928 19.105563 C 966.663531 14.997087 984.695176 11.535315 1002.802903 8.796331 C 1020.910631 6.019306 1039.056399 3.965068 1057.202168 2.557534 C 1075.385978 1.188043 1093.531747 0.503297 1111.715558 0.503297 C 1129.899368 0.503297 1148.083178 1.188043 1166.266988 2.557534 C 1184.412757 3.965068 1202.558526 6.019306 1220.666253 8.796331 C 1238.735939 11.535315 1256.805625 14.997087 1274.799228 19.105563 C 1292.75479 23.25208 1310.67231 28.083343 1328.513747 33.561311 C 1346.355184 39.039279 1364.082497 45.201993 1381.733727 52.049453 C 1399.384957 58.896913 1416.884021 66.429119 1434.307003 74.569988 C 1451.691943 82.748898 1468.962758 91.574513 1486.081408 101.084874 C 1503.200058 110.557194 1520.166542 120.676218 1536.98086 131.479988 C 1553.795178 142.245717 1570.419289 153.65815 1586.853193 165.679246 C 1603.287097 177.738384 1619.530794 190.368144 1635.546242 203.644608 C 1651.599731 216.921072 1667.424972 230.806199 1683.021964 245.261947 C 1698.618956 259.755737 1713.987699 274.820149 1729.090152 290.455183 C 1744.230647 306.090216 1759.06681 322.295871 1773.674725 339.072148 C 1788.282639 355.848425 1802.624264 373.157282 1816.699598 391.036761 C 1830.736891 408.916239 1844.507894 427.290257 1857.974565 446.196855 C 1871.479277 465.103452 1884.641617 484.504589 1897.499625 504.438305 C 1910.357633 524.333981 1922.873268 544.724195 1935.084572 565.570906 C 1947.295875 586.455659 1959.202847 607.758867 1970.729405 629.518573 C 1982.255962 651.278279 1993.440147 673.494483 2004.281959 696.0911 C 2015.12377 718.72576 2025.585167 741.740833 2035.66615 765.136321 C 2045.785174 788.569851 2055.523784 812.345753 2064.881979 836.50207 C 2074.202133 860.620346 2083.179913 885.119036 2091.739238 909.960099 C 2100.336605 934.801162 2108.477474 959.946556 2116.27597 985.396282 C 2124.036424 1010.846008 2131.416464 1036.562024 2138.378049 1062.582372 C 2145.339633 1088.60272 2151.882761 1114.851316 2158.007434 1141.366203 C 2164.132106 1167.881089 2169.838323 1194.624224 2175.126084 1221.557567 C 2180.375803 1248.52895 2185.245108 1275.6525 2189.657915 1302.966257 C 2194.070723 1330.280014 2198.065074 1357.745936 2201.602929 1385.364025 C 2205.140783 1412.982113 2208.260181 1440.714326 2210.923082 1468.560663 C 2213.585983 1496.407 2215.830429 1524.32942 2217.618377 1552.365964 C 2219.406324 1580.364467 2220.737775 1608.439052 2221.612728 1636.589721 C 2222.525723 1664.702348 2222.944179 1692.853017 2222.944179 1721.003685 Z M 2222.944179 1721.003685 " stroke="#000000" stroke-width="1" stroke-opacity="1" stroke-miterlimit="10"/></g><path stroke-linecap="butt" transform="matrix(0.102684, 0, 0, 0.102684, 61.199999, 219.280351)" fill-opacity="1" fill="#f2f2f2" fill-rule="nonzero" stroke-linejoin="miter" d="M 2024.367841 1894.891126 C 2024.367841 1918.020324 2023.987427 1941.149522 2023.264639 1964.240678 C 2022.541852 1987.331835 2021.43865 2010.38495 2019.955033 2033.400023 C 2018.509459 2056.415097 2016.683469 2079.354088 2014.477066 2102.216996 C 2012.308703 2125.117945 2009.721885 2147.866728 2006.830735 2170.57747 C 2003.901544 2193.250171 2000.62998 2215.808747 1997.016043 2238.215158 C 1993.364064 2260.65961 1989.407754 2282.951896 1985.071029 2305.053975 C 1980.734305 2327.194095 1976.055207 2349.144009 1970.995695 2370.941756 C 1965.974224 2392.701462 1960.610381 2414.270961 1954.904164 2435.650252 C 1949.159906 2456.991502 1943.111317 2478.142545 1936.720354 2499.027298 C 1930.367433 2519.950092 1923.634097 2540.606596 1916.59643 2560.99681 C 1909.558763 2581.387024 1902.178723 2601.472907 1894.532393 2621.330541 C 1886.848021 2641.150133 1878.859318 2660.703435 1870.566283 2679.914364 C 1862.273248 2699.163335 1853.675882 2718.031891 1844.774184 2736.634157 C 1835.872486 2755.198382 1826.666456 2773.420234 1817.194137 2791.299712 C 1807.721817 2809.179191 1797.983208 2826.678255 1787.940266 2843.796905 C 1777.897325 2860.953596 1767.626135 2877.691832 1757.050614 2894.049653 C 1746.513134 2910.407474 1735.671322 2926.346839 1724.601262 2941.867748 C 1713.531202 2957.388657 1702.232893 2972.49111 1690.706335 2987.175108 C 1679.141736 3001.821064 1667.38693 3016.048564 1655.365834 3029.819566 C 1643.382779 3043.590569 1631.171476 3056.905075 1618.769965 3069.763083 C 1606.330413 3082.621091 1593.738695 3094.98456 1580.918728 3106.853491 C 1568.098761 3118.760463 1555.126629 3130.134854 1541.926248 3141.052749 C 1528.763908 3151.970643 1515.449403 3162.355957 1501.94469 3172.246733 C 1488.439978 3182.137508 1474.783099 3191.495704 1460.974055 3200.35936 C 1447.165011 3209.184975 1433.241842 3217.516051 1419.20455 3225.314547 C 1405.129215 3233.075002 1390.939757 3240.340918 1376.636174 3247.074253 C 1362.370632 3253.769547 1347.952925 3259.932261 1333.497176 3265.562395 C 1319.003386 3271.154487 1304.433513 3276.252041 1289.787557 3280.740931 C 1275.141601 3285.267863 1260.419562 3289.224173 1245.659482 3292.609862 C 1230.86136 3295.99555 1216.063238 3298.810617 1201.189034 3301.093104 C 1186.314829 3303.37559 1171.440625 3305.049414 1156.528379 3306.190657 C 1141.578091 3307.331901 1126.665845 3307.902522 1111.715558 3307.902522 C 1096.803311 3307.902522 1081.853024 3307.331901 1066.940778 3306.190657 C 1052.028532 3305.049414 1037.154327 3303.37559 1022.280123 3301.093104 C 1007.405918 3298.810617 992.607796 3295.99555 977.809675 3292.609862 C 963.049594 3289.224173 948.327555 3285.267863 933.6816 3280.740931 C 919.035644 3276.252041 904.465771 3271.154487 889.97198 3265.562395 C 875.47819 3259.932261 861.098524 3253.769547 846.794941 3247.074253 C 832.5294 3240.340918 818.339941 3233.075002 804.264607 3225.314547 C 790.227314 3217.516051 776.266104 3209.184975 762.495101 3200.35936 C 748.686057 3191.495704 735.029179 3182.137508 721.524466 3172.246733 C 708.019754 3162.355957 694.705248 3151.970643 681.504867 3141.052749 C 668.342528 3130.134854 655.370395 3118.760463 642.550428 3106.853491 C 629.730462 3094.98456 617.100702 3082.621091 604.699192 3069.763083 C 592.297681 3056.905075 580.086377 3043.590569 568.065281 3029.819566 C 556.082226 3016.048564 544.32742 3001.821064 532.762821 2987.175108 C 521.236264 2972.49111 509.899913 2957.388657 498.829853 2941.867748 C 487.759793 2926.346839 476.956023 2910.407474 466.418543 2894.049653 C 455.843021 2877.691832 445.53379 2860.953596 435.52889 2843.796905 C 425.485949 2826.678255 415.747339 2809.179191 406.27502 2791.299712 C 396.764659 2773.420234 387.596671 2755.198382 378.694973 2736.634157 C 369.793275 2718.031891 361.195909 2699.163335 352.902874 2679.914364 C 344.609839 2660.703435 336.621136 2641.150133 328.936764 2621.330541 C 321.252392 2601.472907 313.910394 2581.387024 306.872726 2560.99681 C 299.835059 2540.606596 293.101724 2519.950092 286.710761 2499.027298 C 280.319799 2478.142545 274.271209 2456.991502 268.564992 2435.612211 C 262.858776 2414.270961 257.494932 2392.701462 252.43542 2370.941756 C 247.413949 2349.144009 242.734852 2327.194095 238.398127 2305.053975 C 234.061403 2282.951896 230.067051 2260.65961 226.453114 2238.215158 C 222.839177 2215.808747 219.567612 2193.250171 216.638421 2170.57747 C 213.70923 2147.866728 211.160453 2125.117945 208.992091 2102.216996 C 206.785687 2079.354088 204.959698 2056.415097 203.476082 2033.400023 C 202.030507 2010.38495 200.927305 1987.331835 200.204517 1964.240678 C 199.48173 1941.149522 199.101316 1918.020324 199.101316 1894.891126 C 199.101316 1871.761928 199.48173 1848.670771 200.204517 1825.579615 C 200.927305 1802.488458 202.030507 1779.397302 203.476082 1756.420269 C 204.959698 1733.405196 206.785687 1710.428164 208.992091 1687.565256 C 211.160453 1664.702348 213.70923 1641.915523 216.638421 1619.242822 C 219.567612 1596.570122 222.839177 1574.011545 226.453114 1551.567093 C 230.067051 1529.122641 234.061403 1506.868397 238.398127 1484.728276 C 242.734852 1462.588156 247.413949 1440.638243 252.43542 1418.878537 C 257.494932 1397.118831 262.858776 1375.549332 268.564992 1354.17004 C 274.271209 1332.790749 280.319799 1311.677747 286.710761 1290.754953 C 293.101724 1269.8702 299.835059 1249.213696 306.872726 1228.823482 C 313.910394 1208.433268 321.252392 1188.309345 328.936764 1168.489752 C 336.621136 1148.632118 344.609839 1129.116858 352.902874 1109.867887 C 361.195909 1090.656958 369.793275 1071.75036 378.694973 1053.186135 C 387.596671 1034.583869 396.764659 1016.362018 406.27502 998.52058 C 415.747339 980.641102 425.485949 963.103996 435.52889 945.985346 C 445.53379 928.866696 455.843021 912.128461 466.418543 895.77064 C 476.956023 879.412819 487.759793 863.473454 498.829853 847.952545 C 509.899913 832.393594 521.236264 817.291141 532.762821 802.645185 C 544.32742 787.961188 556.082226 773.733688 568.065281 759.962685 C 580.086377 746.191682 592.297681 732.877177 604.699192 720.019169 C 617.100702 707.199202 629.730462 694.835733 642.550428 682.928761 C 655.370395 671.05983 668.342528 659.647397 681.504867 648.729503 C 694.705248 637.84965 708.019754 627.464335 721.524466 617.57356 C 735.029179 607.682784 748.686057 598.324589 762.495101 589.460933 C 776.266104 580.597276 790.227314 572.304242 804.264607 564.505746 C 818.339941 556.707249 832.5294 549.441334 846.794941 542.74604 C 861.098524 536.012704 875.47819 529.84999 889.97198 524.257898 C 904.465771 518.627764 919.035644 513.568252 933.6816 509.04132 C 948.327555 504.55243 963.049594 500.59612 977.809675 497.210431 C 992.607796 493.786701 1007.405918 490.971634 1022.280123 488.689148 C 1037.154327 486.444702 1052.028532 484.732837 1066.940778 483.591594 C 1081.853024 482.450351 1096.803311 481.917771 1111.715558 481.917771 C 1126.665845 481.917771 1141.578091 482.450351 1156.528379 483.591594 C 1171.440625 484.732837 1186.314829 486.444702 1201.189034 488.689148 C 1216.063238 490.971634 1230.86136 493.786701 1245.659482 497.210431 C 1260.419562 500.59612 1275.141601 504.55243 1289.787557 509.04132 C 1304.433513 513.568252 1319.003386 518.627764 1333.497176 524.257898 C 1347.952925 529.84999 1362.370632 536.012704 1376.636174 542.74604 C 1390.939757 549.441334 1405.129215 556.707249 1419.20455 564.505746 C 1433.241842 572.304242 1447.165011 580.597276 1460.974055 589.460933 C 1474.783099 598.324589 1488.439978 607.682784 1501.94469 617.57356 C 1515.449403 627.464335 1528.763908 637.84965 1541.926248 648.729503 C 1555.126629 659.647397 1568.098761 671.05983 1580.918728 682.928761 C 1593.738695 694.835733 1606.330413 707.199202 1618.769965 720.019169 C 1631.171476 732.877177 1643.382779 746.191682 1655.365834 759.962685 C 1667.38693 773.733688 1679.141736 787.961188 1690.706335 802.645185 C 1702.232893 817.291141 1713.531202 832.393594 1724.601262 847.952545 C 1735.671322 863.473454 1746.513134 879.412819 1757.050614 895.77064 C 1767.626135 912.128461 1777.897325 928.866696 1787.940266 945.985346 C 1797.983208 963.103996 1807.721817 980.641102 1817.194137 998.52058 C 1826.666456 1016.362018 1835.872486 1034.583869 1844.774184 1053.186135 C 1853.675882 1071.75036 1862.273248 1090.656958 1870.566283 1109.867887 C 1878.859318 1129.116858 1886.848021 1148.632118 1894.532393 1168.489752 C 1902.178723 1188.309345 1909.558763 1208.433268 1916.59643 1228.823482 C 1923.634097 1249.213696 1930.367433 1269.8702 1936.720354 1290.754953 C 1943.111317 1311.677747 1949.159906 1332.790749 1954.904164 1354.17004 C 1960.610381 1375.549332 1965.974224 1397.118831 1970.995695 1418.878537 C 1976.055207 1440.638243 1980.734305 1462.588156 1985.071029 1484.728276 C 1989.407754 1506.868397 1993.364064 1529.122641 1997.016043 1551.567093 C 2000.62998 1574.011545 2003.901544 1596.570122 2006.830735 1619.242822 C 2009.721885 1641.915523 2012.308703 1664.702348 2014.477066 1687.565256 C 2016.683469 1710.428164 2018.509459 1733.405196 2019.955033 1756.420269 C 2021.43865 1779.397302 2022.541852 1802.488458 2023.264639 1825.579615 C 2023.987427 1848.670771 2024.367841 1871.761928 2024.367841 1894.891126 Z M 2024.367841 1894.891126 " stroke="#000000" stroke-width="1" stroke-opacity="1" stroke-miterlimit="10"/><path stroke-linecap="butt" transform="matrix(0.102684, 0, 0, 0.102684, 61.199999, 219.280351)" fill-opacity="1" fill="#00bf63" fill-rule="nonzero" stroke-linejoin="miter" d="M 1392.157083 2389.696188 L 807.726378 2233.155646 C 674.771532 2729.520407 829.181753 3208.652395 1149.795043 3294.549975 C 1470.408333 3380.447556 1843.63294 3042.639533 1976.587787 2546.23673 C 2109.542634 2049.833927 1955.132413 1570.70194 1634.557164 1484.842401 C 1378.576287 1416.253677 1081.244361 1615.704968 904.617936 1974.435785 Z M 1392.157083 2389.696188 " stroke="#000000" stroke-width="1" stroke-opacity="1" stroke-miterlimit="10"/><g transform="matrix(1, 0, 0, 1, 399, 790)"><g clip-path="url(#5d0e7a5bee)"><g clip-path="url(#ccca8ff014)"><g fill="#ffffff" fill-opacity="1"><g transform="translate(1.035467, 1.766638)"><g><path d="M 0.09375 0 L 0.09375 -0.75 L 0.171875 -0.75 L 0.171875 -0.3125 L 0.1875 -0.3125 L 0.390625 -0.53125 L 0.46875 -0.53125 L 0.25 -0.28125 L 0.484375 -0.015625 L 0.484375 0 L 0.40625 0 L 0.1875 -0.25 L 0.171875 -0.25 L 0.171875 0 Z M 0.09375 0 "/></g></g></g></g></g></g></svg>